<?xml version="1.0" encoding="utf-8"?>
<!-- Generator: Adobe Illustrator 26.5.0, SVG Export Plug-In . SVG Version: 6.00 Build 0)  -->
<svg version="1.1" id="Calque_1" xmlns="http://www.w3.org/2000/svg" xmlns:xlink="http://www.w3.org/1999/xlink" x="0px" y="0px"
	 viewBox="0 0 1512 1833.6" style="enable-background:new 0 0 1512 1833.6;" xml:space="preserve">
<style type="text/css">
	.st0{fill:#E4C2A0;}
	.st1{opacity:0.48;fill:none;stroke:#3D3329;stroke-width:2;stroke-miterlimit:10;enable-background:new    ;}
</style>
<g id="home-6">
	<path class="st0" d="M1140.1,941.5c-4.6-44.4-5.4-91.7,16.2-130.8c28.7-52.2,90-77,148.4-88.9c58.3-11.9,119.6-15.1,173.2-41.2
		c44.3-21.5,89.6-59.1,136.4-43.9c40.8,13.2,69.3,46.3,86.1,85.8c21.2,49.7,34.2,102.8,38.4,156.6c4,50.9-2.5,107.9-40.3,142.1
		c-33.2,30.1-81.7,34.7-126.5,36.9c-56.7,2.9-113.6,4.4-170.4,4.6c-40.3,0.2-81.2-0.4-120.1-10.9
		C1223.2,1036.1,1146.3,1001.6,1140.1,941.5L1140.1,941.5z"/>
	<path class="st1" d="M1182.7,968.5c-11.2-45.4-19-94.3-2.4-138c22.2-58.3,82.1-93,140.8-113.8c58.8-20.9,121.8-33.2,173.5-68
		c42.8-28.8,84.2-74.4,135-65.5c44.2,7.7,78.6,37.9,101.8,76.3c29.2,48.4,50.5,101.6,62.7,156.7c11.6,52.2,13.2,112.2-21,153.3
		c-30.1,36.1-79.6,47.9-125.7,56.8c-58.4,11.3-117.1,21.2-176,29.7c-41.8,6.1-84.2,11.4-126.1,6.2
		C1282.7,1054.4,1197.9,1029.9,1182.7,968.5L1182.7,968.5z"/>
</g>
<g id="home-5">
	<path class="st0" d="M1627.8,299.2c-28,17.6-63.3,19-96.1,14.8c-100-12.8-192.4-75.3-241.5-163.4c-12.3-22.1-22.2-45.9-38.2-65.5
		c-29.2-35.7-74.9-53-119.3-65.4c-44.4-12.5-90.8-22.1-129.1-47.6c-38.4-25.5-67.3-72.3-55.7-117C984-284.2,1100.7-391,1226.3-461.2
		c63.9-35.7,131.5-68.8,204.4-75.4c137.1-12.6,271.6,76.2,334.6,198.6s61.3,271,18.3,401.7C1751.4,161.4,1714.8,244.6,1627.8,299.2z
		"/>
	<path class="st1" d="M1649.6,351c-28.8,16.2-64.1,15.9-96.7,10.1c-99.3-17.6-188.6-84.5-233.3-174.9c-11.2-22.7-20-46.9-35-67.2
		c-27.4-37-72.3-56.5-116-71.1s-87.3-29.8-126.7-53.8c-43.2-26.4-68.9-92.6-62.4-146.4c51-425,167.6-251.8,305.8-275.6
		c72.1-12.4,134.7-62.3,207.8-65.4c137.5-5.9,267.6,89.3,324.5,214.6c57,125.3,48.1,273.6-1.2,402.1
		C1779.7,219.3,1739.2,300.7,1649.6,351L1649.6,351z"/>
</g>
<g id="home-4">
	<path class="st0" d="M470.5,704c-44.7-1.4-84.2,23.5-107.3,61.8c-23.1,38.3-21.2,90.3,4.7,126.8c29.4,41.5,84.3,61.3,108.4,106.2
		c5.5,10.2,9.3,21.5,17.4,29.8c7.5,7.6,17.7,11.8,27.9,14.8c52.1,15.5,111.7,6.4,155-26.5s68.2-89.6,60.3-143.4
		c-8-53.8-50-101.8-103-113.9c-25.9-5.9-53.3-3.9-78.5-12.1c-20.4-6.7-38-21.2-48.3-28.9C507.1,718.5,491.7,705.6,470.5,704z"/>
	<path class="st1" d="M504.8,691.6c-44.7-11.6-90.1,4.3-122.1,37.6c-32,33.3-42,85.9-24.3,128.6c20.1,48.5,70.7,81,84.8,131.6
		c3.2,11.5,4.4,23.8,10.7,34c5.7,9.3,15.2,15.9,24.7,21.3c48.9,27.6,110.9,32.1,162,8.9c51.1-23.2,89.1-74.5,93.5-130.4
		c4.3-55.9-27.1-113.8-77.7-138.2c-24.7-11.9-52.7-16.1-76.1-30.2c-19-11.4-33.4-30-42-40.2C538.3,714.6,525.8,698.1,504.8,691.6
		L504.8,691.6z"/>
</g>
<g id="home-3">
	<path class="st0" d="M641.2,424.2c44.2,11,93.2,1.6,130.1-25.2c8.7-6.3,16.9-13.8,22.1-23.2c10.3-18.9,6.5-42.7-2.9-62
		c-9.4-19.4-23.8-35.8-35.5-53.8c-45.6-69.9-54-166.7-121.9-215c-21.5-15.3-47.3-24-73.4-28.3c-73.8-12-154.1,12.8-203.8,68.7
		s-64.2,142.5-30.1,209c28.3,55.3,87.2,88.3,148.3,90.2c22.3,0.7,43.1-2.6,65.1,2.4C574.7,395.2,606,415.4,641.2,424.2L641.2,424.2z
		"/>
	<path class="st1" d="M603.6,433.4c44.3,15.7,95.3,10.8,135.8-13c9.5-5.6,18.7-12.4,24.9-21.6c12.4-18.4,10.9-43.1,3.1-63.9
		c-7.7-20.8-20.9-39-31.1-58.6c-39.8-76-38.9-176.1-103.7-232.3C612,26.2,586.5,14.7,560.1,7.8c-74.5-19.6-159.2-2.1-215.6,50.4
		s-79.8,139.7-51.4,211.3c23.6,59.4,80.7,99.1,143.1,107c22.7,2.9,44.4,1.6,66.5,8.9C538.2,397.1,568.3,420.9,603.6,433.4
		L603.6,433.4z"/>
</g>
<g id="home-2_00000070830317447028084680000004098013410900560777_">
	<path class="st0" d="M-95.1,495.3c-44.7-1.4-84.2,23.5-107.3,61.8s-21.2,90.3,4.7,126.8c29.4,41.5,84.3,61.3,108.4,106.1
		c5.5,10.2,9.3,21.6,17.4,29.8c7.4,7.6,17.7,11.8,27.9,14.8c52.1,15.5,111.7,6.4,155-26.5s68.2-89.6,60.3-143.4
		c-8-53.8-50-101.8-103-113.9c-25.9-5.8-53.3-3.8-78.5-12c-20.4-6.7-38-21.2-48.3-28.9C-58.5,509.8-74,497-95.1,495.3L-95.1,495.3z"
		/>
	<path class="st1" d="M-140.7,506.7c-47.8,8.4-84.2,43.6-100.2,89.4c-16,45.8-2.5,100.5,33.1,133.5c40.5,37.5,103.1,46.4,138.6,88.6
		c8.1,9.6,14.7,20.8,25.1,27.8c9.6,6.4,21.4,8.5,32.9,9.5c58.8,4.9,120-17.9,158.7-62.4s52.6-110.2,32.2-165.5
		s-75.6-96.9-134.6-98.1c-28.8-0.6-57.4,7.7-86,4.5c-23.1-2.6-45-14-57.7-20C-98.6,514-117.9,503.8-140.7,506.7L-140.7,506.7z"/>
</g>
<g id="home-1_00000071519319078546641950000008659544003827641763_">
	<path class="st0" d="M8.6,121.4c14.3,1,29.7,1.7,42.1-5.7c16.2-9.7,21.8-29.9,31-46.4c20.7-37.1,61.7-57,93.9-84.8
		c8.3-7.2,16.3-15.2,20.7-25.3c4.3-9.9,4.8-21.1,4.7-31.9c-0.3-35-7.2-72.5-31.8-97.4c-30.7-31-79.1-33.7-122.7-34.4
		c-34-0.5-69.3-0.7-100.2,13.5c-29.7,13.6-52.2,39.2-69.8,66.7C-148.4-85.3-165-41-171.8,4.8c-2,13.8-3.1,28.3,1.9,41.3
		C-141.3,120.1-54.8,117,8.6,121.4z"/>
	<path class="st1" d="M-14.1,119.1c14.1,3,29.2,5.9,42.4,0.3C45.7,112,54,92.8,65.5,77.8C91.2,44,134.6,29.9,170.3,7
		c9.3-5.9,18.3-12.8,24.1-22.2c5.7-9.2,7.7-20.2,9.1-30.9c4.6-34.7,3-72.8-17.9-100.9c-26.1-35-73.6-44.4-116.7-51.2
		c-33.6-5.3-68.6-10.3-101.1-0.6c-31.3,9.3-57.2,31.5-78.4,56.3c-30.1,35.2-52.7,76.7-65.8,121.1c-4,13.4-7.1,27.6-3.9,41.1
		C-162.3,96.8-76.3,105.9-14.1,119.1z"/>
</g>
<g id="home-7">
	<path class="st0" d="M1076,1082.5c-18.4-8.3-39.3-8.5-59.5-8.5c-23.3,0-47,0-69.3,6.7c-22.3,6.6-43.5,20.9-53,42.2
		c-7.1,16-6.9,34-6.6,51.5c0.2,14.8,0.8,30.7,9.7,42.5c9.2,12.3,25.1,17.2,40.1,20.9c32.6,8.1,66.9,14.1,99.5,6
		c27.2-6.8,51-22.9,74.2-38.6c14.4-9.8,29.7-20.7,35.5-37.2C1157,1138.4,1099.9,1093.4,1076,1082.5z"/>
	<path class="st1" d="M1097.3,1099.4c-15.7-12.7-36-18-55.5-23.1c-22.6-5.8-45.5-11.7-68.8-10.8c-23.3,0.8-47.4,9.4-61.9,27.7
		c-10.8,13.7-15.2,31.3-19.3,48.3c-3.5,14.4-6.9,30-1.2,43.6c5.9,14.2,20.1,22.9,33.6,30.2c29.5,16,61.3,30.4,94.9,30.7
		c28.1,0.2,55.2-9.4,81.6-18.9c16.4-5.9,34-12.7,43.7-27.2C1161.9,1173.8,1117.8,1115.9,1097.3,1099.4z"/>
</g>
<g id="home-8">
	<path class="st0" d="M-146.7,1219.5c51.2-39.7,98.1-86.5,156.6-114.4c58.5-27.9,134.2-32.7,183.5,9.4
		c55.4,47.3,56.3,130.4,75.8,200.5c25.2,90.4,87.8,173.9,79.6,267.4c-1.9,21.4-8,43.4-22.8,58.9c-17.8,18.7-44.6,25.1-69.9,30.6
		C145.2,1696,31,1720.2-80.7,1701c-111.8-19.2-222-92.3-250.1-202.2c-12.8-50.1-22.3-154.2,19.4-194.4
		C-271,1265.4-194.2,1256.3-146.7,1219.5z"/>
	<path class="st1" d="M-123.5,1205.7c54.8-34.6,106-76.5,167-98.6s136.8-19.5,181.7,27.2c50.5,52.5,43.3,135.2,55.9,206.9
		c16.3,92.4,70.5,181.6,53.2,273.9c-3.9,21.1-12.2,42.4-28.5,56.4c-19.5,16.9-46.9,20.6-72.5,23.6c-112.6,13.2-228.6,26.1-337.9-3.8
		c-109.4-29.9-212-113.5-229.2-225.6c-7.9-51.1-7.2-155.6,38.2-191.6C-251.6,1239.3-174.3,1237.7-123.5,1205.7z"/>
</g>
<g id="home-9">
	<path class="st0" d="M891.5,1529.6c65.5-43.5,147-57.1,225.6-54.1c34.3,1.3,69.5,5.8,99.3,22.7c26.7,15,47.2,38.8,66.8,62.3
		c35.6,42.6,70.2,86.1,103.8,130.3c25.9,34.2,52.5,72.5,50.7,115.3c-0.9,21.8-9.3,42.6-20.6,61.2c-33,54.2-90.4,90.1-151.1,108.4
		s-125,20.4-188.4,19.4c-34.6-0.5-69.9-2.2-101.9-15.2c-52.5-21.4-88.1-70.1-120.8-116.4C773.2,1748.1,759.9,1616.9,891.5,1529.6z"
		/>
	<path class="st1" d="M946.4,1482.5c73.9-26.8,156.3-20.7,231.9,0.7c33,9.3,66.1,22.1,91.2,45.5c22.4,20.9,36.7,48.8,50.2,76.3
		c24.5,49.8,47.9,100.3,70.1,151.2c17.1,39.3,33.9,82.8,22,124.1c-6,20.9-19.1,39.2-34.5,54.6c-44.8,44.8-109.1,66.2-172.4,69.6
		c-63.3,3.4-126.3-9.8-187.7-25.7c-33.5-8.7-67.4-18.6-95.5-38.9c-46-33.3-69-88.9-89.9-141.7
		C779.9,1666.9,797.9,1536.3,946.4,1482.5z"/>
</g>
</svg>
