<?xml version="1.0" encoding="utf-8"?>
<!-- Generator: Adobe Illustrator 26.3.1, SVG Export Plug-In . SVG Version: 6.00 Build 0)  -->
<svg version="1.1" id="Calque_1" xmlns="http://www.w3.org/2000/svg" xmlns:xlink="http://www.w3.org/1999/xlink" x="0px" y="0px"
	 viewBox="0 0 1512 5189.1" style="enable-background:new 0 0 1512 5189.1;" xml:space="preserve">
<style type="text/css">
	.st0{fill:#FFFFFF;}
	.st1{fill:#EFDAC6;}
	.st2{fill:none;stroke:#B3A392;stroke-width:2;}
	.st3{fill-rule:evenodd;clip-rule:evenodd;fill:#EFDAC6;}
</style>
<path class="st0" d="M1377.9-384.8c97.9-53.8,165.3-156.5,227.3-161.1c61.5-4.7,117.6,89.1,131.6,173.1
	c13.4,84.4-15.7,158.8-47.8,214.6c-32.7,56.2-69,93.6-121.4,154.1c-52.5,60.5-121.6,143.4-199.1,151.5
	c-77.6,8.5-163.5-58.8-222.9-149.5c-58.9-90.6-91.5-204.5-43.3-264.1C1150.5-325.8,1279.5-331.1,1377.9-384.8L1377.9-384.8z"/>
<path class="st1" d="M1377.9-384.8c97.9-53.8,165.3-156.5,227.3-161.1c61.5-4.7,117.6,89.1,131.6,173.1
	c13.4,84.4-15.7,158.8-47.8,214.6c-32.7,56.2-69,93.6-121.4,154.1c-52.5,60.5-121.6,143.4-199.1,151.5
	c-77.6,8.5-163.5-58.8-222.9-149.5c-58.9-90.6-91.5-204.5-43.3-264.1C1150.5-325.8,1279.5-331.1,1377.9-384.8L1377.9-384.8z"/>
<path class="st2" d="M1356.7-371.6L1356.7-371.6c41.6-28.9,76.3-66.8,107.3-100.8c3.5-3.8,6.9-7.6,10.4-11.3
	c17.1-18.6,33.2-35.5,48.9-48.4c15.7-12.9,30.9-21.8,46.4-24.4l0,0c30.6-5.4,62.4,14,89.5,45.6c27.1,31.5,49.2,74.9,60.5,116.8
	c21.9,84.2-0.2,162.6-27.4,222.5c-23.1,50.3-49.9,87.5-85.6,137.2c-7.2,10-14.7,20.4-22.6,31.6c-1.8,2.5-3.6,5-5.4,7.6
	c-22.5,31.7-48,67.8-76.9,98.4c-31.2,33.1-66.1,59.7-104.8,67.6v0c-38.8,8.1-81.6-2.7-123.4-26.4c-41.8-23.7-82.6-60.2-117.3-103.3
	c-34.4-43.1-62.7-92.7-77-139.8c-14.3-47-14.5-91.2,6.8-123.6c10.7-16.2,26.8-29.5,46.6-41.4c19.8-11.9,43.1-22.3,68-32.7
	c7.7-3.2,15.5-6.4,23.4-9.6c43.7-17.8,90.3-36.8,130.6-64.2L1356.7-371.6z"/>
<path class="st0" d="M387.4,37.5c95.4,90.1,170.1,205.5,144.6,295c-25.5,90.1-150.7,154.4-246.7,200.7C190,579.5,125,607.7,60,607.1
	c-65-0.6-129.4-29.4-190.8-75.7c-62-46.3-120.9-110-119.1-171.8c1.8-61.9,64.4-122,126.4-212.1C-62.2,57.3-1.4-62.8,87.3-90.5
	C175.4-118.1,292-52.6,387.4,37.5L387.4,37.5z"/>
<path class="st1" d="M387.4,37.5c95.4,90.1,170.1,205.5,144.6,295c-25.5,90.1-150.7,154.4-246.7,200.7C190,579.5,125,607.7,60,607.1
	c-65-0.6-129.4-29.4-190.8-75.7c-62-46.3-120.9-110-119.1-171.8c1.8-61.9,64.4-122,126.4-212.1C-62.2,57.3-1.4-62.8,87.3-90.5
	C175.4-118.1,292-52.6,387.4,37.5L387.4,37.5z"/>
<path class="st2" d="M514.1,415.7L514.1,415.7c-22.2,41.4-67.5,71.2-120.5,93.8c-53,22.6-113.5,37.8-165.9,50.2h0
	c-104.2,25-174.3,38.6-238,24C-74,569-131.1,526.7-181.6,467.8h0c-25.5-29.5-49.3-63.1-64.8-96.9c-15.5-33.8-22.7-67.6-15.1-97.7
	c7.5-30,29.9-56.5,60.5-84.9c13.9-12.9,29.5-26.1,46.1-40.3c1.7-1.5,3.5-2.9,5.2-4.4c18.6-15.8,38.4-32.9,58.6-51.8l0,0
	c14.9-14,29.9-29.1,45.2-44.3C-19.9,21.7,6.6-4.8,33.7-27.9c43.2-36.8,87.9-64.9,134.3-68.9h0c46.1-4,94.3,16.3,140.4,51.4
	c46,35.1,89.8,84.9,127.1,139.7l0.2,0.3l0,0c37.1,54.7,67.8,114.4,83.6,170.7C535.3,321.7,536.2,374.7,514.1,415.7z"/>
<path class="st0" d="M1188,1237.6c-88.2-42.3-182.6-65.5-251.6-139.6c-69.6-73.8-113.9-198.6-64.9-261.9
	c48.1-63.7,190.2-66.2,317.3-119.2c127.2-52.9,241.1-156.2,341.4-149.2c100.9,6.7,188.7,124.8,195.9,237.6
	c7.4,113.4-64.8,222-125.9,320.7c-60.5,98.5-108.9,187.5-174.6,201.1C1359.4,1340.9,1276.8,1279.6,1188,1237.6L1188,1237.6z"/>
<path class="st1" d="M1188,1237.6c-88.2-42.3-182.6-65.5-251.6-139.6c-69.6-73.8-113.9-198.6-64.9-261.9
	c48.1-63.7,190.2-66.2,317.3-119.2c127.2-52.9,241.1-156.2,341.4-149.2c100.9,6.7,188.7,124.8,195.9,237.6
	c7.4,113.4-64.8,222-125.9,320.7c-60.5,98.5-108.9,187.5-174.6,201.1C1359.4,1340.9,1276.8,1279.6,1188,1237.6L1188,1237.6z"/>
<path class="st2" d="M1153.3,1211.5L1153.3,1211.5c-19.7-13.1-39.9-25.1-60-37c-0.9-0.6-1.9-1.1-2.8-1.7
	c-19.8-11.8-39.6-23.5-58.6-36c-39.9-26.2-76.8-56-105.6-97.4l0,0c-29.2-41.3-50.3-94.4-56.9-144c-6.7-49.7,1.2-95.6,29.5-123.2l0,0
	h0c14-13.9,33.2-23.3,56.4-30.1c23.2-6.8,50.2-10.9,79.7-14.4c12.9-1.5,26.4-2.9,40.1-4.3c48.9-5.1,102.2-10.6,154.3-24.1
	c48.4-12.5,96-31.8,141.6-50.2c17.4-7,34.4-14,51.2-20.3c60.8-23.2,117-39.4,165.8-28.9l0,0c49.1,10.4,91.2,47.7,119.9,96.6
	c28.7,48.9,44,109.2,39.7,165.3l0,0c-4.3,56.4-28.1,108.9-60.1,158.5c-28.4,43.9-63.2,85.4-96.6,125.2c-4.3,5.2-8.7,10.3-12.9,15.4
	l0,0c-6.7,8-13.2,16-19.7,23.9c-29.3,35.6-56.7,68.9-83.4,95c-32.7,31.9-64.3,53.1-97.4,55.1h0c-33.4,2.1-68.3-14.7-105.3-39
	c-18.2-12-36.9-25.8-56-39.9l-0.8-0.6c-19.4-14.3-39.4-29-59.9-42.6L1153.3,1211.5z"/>
<path class="st0" d="M173.2,1356.6c-68.6,49.4-140.3,77.2-215.7,81.3c-75.8,4-155.3-15.3-197.1-64.7c-42.2-49.4-46.3-128-51.3-212.4
	c-5.4-84-11.8-172.9,30.4-205.7c41.8-32.3,131.7-8.1,219.8-5.8c88.1,1.8,174.4-18,242.9,14.4c68.6,32.3,120.3,117.7,113.1,195.4
	C308.1,1236.7,241.8,1307.7,173.2,1356.6z"/>
<path class="st1" d="M173.2,1356.6c-68.6,49.4-140.3,77.2-215.7,81.3c-75.8,4-155.3-15.3-197.1-64.7c-42.2-49.4-46.3-128-51.3-212.4
	c-5.4-84-11.8-172.9,30.4-205.7c41.8-32.3,131.7-8.1,219.8-5.8c88.1,1.8,174.4-18,242.9,14.4c68.6,32.3,120.3,117.7,113.1,195.4
	C308.1,1236.7,241.8,1307.7,173.2,1356.6z"/>
<path class="st2" d="M143,1398.9L143,1398.9c-76.5,37.6-152.6,53.3-228.2,44.7c-76.2-8.7-151.8-41.3-184.9-97.2h0
	c-16.8-28-22.9-61.6-23.7-99c-0.8-36.3,3.6-76,8-117.3c0.1-1.2,0.3-2.4,0.4-3.5l0,0c0.1-1.1,0.2-2.2,0.3-3.2
	c4.2-41.3,8.6-83.5,17.5-118.7c9.2-36.2,23.2-64.6,46.6-77.2c11.6-6.2,25.6-8.5,41.5-8.1c15.9,0.4,33.7,3.5,52.8,7.9
	c15.5,3.6,31.9,8,48.8,12.6c3.9,1.1,7.8,2.1,11.7,3.2c21.1,5.7,42.8,11.4,64.7,15.6h0c21.9,4.2,43.9,7,65.6,9.5
	c4.1,0.5,8.2,1,12.3,1.4c17.4,2,34.6,4,51.2,6.5c41.1,6.2,79,15.9,110.3,37.6c31.3,21.8,56.2,56,70.8,94.3
	c14.6,38.3,18.8,80.6,8.7,118.5c-10.1,37.9-34.5,71.7-66.1,100.7C219.8,1356.1,181.3,1380.3,143,1398.9z"/>
<path class="st0" d="M492.9,1679.2c97.9-53.8,165.3-156.5,227.3-161.1c61.6-4.7,117.6,89.1,131.6,173.1
	c13.4,84.4-15.7,158.8-47.8,214.6c-32.7,56.2-69,93.6-121.4,154.1c-52.5,60.5-121.6,143.4-199.1,151.5
	c-77.6,8.5-163.5-58.8-222.9-149.5c-59-90.6-91.5-204.5-43.3-264.1C265.5,1738.2,394.5,1732.9,492.9,1679.2L492.9,1679.2z"/>
<path class="st1" d="M492.9,1679.2c97.9-53.8,165.3-156.5,227.3-161.1c61.6-4.7,117.6,89.1,131.6,173.1
	c13.4,84.4-15.7,158.8-47.8,214.6c-32.7,56.2-69,93.6-121.4,154.1c-52.5,60.5-121.6,143.4-199.1,151.5
	c-77.6,8.5-163.5-58.8-222.9-149.5c-59-90.6-91.5-204.5-43.3-264.1C265.5,1738.2,394.5,1732.9,492.9,1679.2L492.9,1679.2z"/>
<path class="st2" d="M471.7,1692.4L471.7,1692.4c41.6-28.9,76.2-66.9,107.3-100.8c3.5-3.8,6.9-7.6,10.4-11.3
	c17.1-18.6,33.2-35.5,48.9-48.4c15.7-12.9,31-21.8,46.4-24.4l0,0c30.6-5.4,62.4,14.1,89.5,45.6c27.1,31.5,49.2,74.9,60.5,116.8
	c21.9,84.2-0.2,162.6-27.4,222.5c-23.1,50.3-49.9,87.5-85.6,137.2c-7.2,9.9-14.7,20.4-22.6,31.6c-1.8,2.5-3.6,5-5.4,7.6
	c-22.5,31.7-48,67.8-76.9,98.4c-31.2,33.1-66,59.7-104.8,67.6l0,0c-38.8,8.1-81.6-2.7-123.4-26.4c-41.8-23.7-82.6-60.2-117.3-103.3
	c-34.4-43.1-62.7-92.8-77-139.8c-14.3-47-14.5-91.2,6.8-123.6c10.7-16.2,26.8-29.5,46.6-41.4c19.7-11.9,43.1-22.3,68-32.7
	c7.7-3.2,15.5-6.4,23.4-9.6c43.7-17.8,90.3-36.8,130.6-64.2L471.7,1692.4z"/>
<path class="st0" d="M1186.7,2468c-23.4-102.6,37.7-229.4,133.6-289.6c96.9-60,229.6-54.2,318.1-4.7
	c88.6,49.5,133.6,142.1,225.3,222.5c92.1,80.8,231.9,149.4,235.1,212.8s-130,121.3-236.6,190.1c-106.7,69.8-186.8,150.4-255.2,140.2
	c-68.5-10.2-125.8-110.8-207.7-200.9C1317.4,2649.3,1210.1,2570.6,1186.7,2468L1186.7,2468z"/>
<path class="st1" d="M1186.7,2468c-23.4-102.6,37.7-229.4,133.6-289.6c96.9-60,229.6-54.2,318.1-4.7
	c88.6,49.5,133.6,142.1,225.3,222.5c92.1,80.8,231.9,149.4,235.1,212.8s-130,121.3-236.6,190.1c-106.7,69.8-186.8,150.4-255.2,140.2
	c-68.5-10.2-125.8-110.8-207.7-200.9C1317.4,2649.3,1210.1,2570.6,1186.7,2468L1186.7,2468z"/>
<path class="st2" d="M1861.7,2770.2L1861.7,2770.2c-26.7,17.5-51.7,35.6-75.3,52.8c-1.8,1.3-3.6,2.6-5.4,3.9
	c-21.6,15.8-41.9,30.6-61.3,43.4c-41.9,27.6-78.8,45-112.6,40l0,0c-33.8-5-65.1-32.4-98.2-70.1c-14.4-16.4-29.2-34.7-44.6-53.9
	c-2.3-2.8-4.5-5.6-6.8-8.5c-18-22.3-36.9-45.5-57.4-68h0c-20.5-22.3-42.5-43.9-64.4-65.4l-0.1-0.1c-21.9-21.5-43.8-42.9-63.7-64.7
	c-40-43.6-72.5-88.8-84.1-139.8l0-0.2l0,0c-11.6-51-2.2-108,22.1-159.8c24.3-51.9,63.4-98.5,111.2-128.4
	c96.5-59.8,228.8-54,317.1-4.7c44.1,24.6,77.4,60.1,111.2,99.4c5.6,6.6,11.3,13.3,17,20.1c28.5,33.7,58.6,69.4,96.9,102.9
	c30.9,27.1,67.1,52.8,101.7,77.4c17.1,12.1,33.8,24,49.2,35.6c23.4,17.6,44,34.6,59,51.1c15,16.5,24.1,32.5,24.9,48
	c0.8,15.4-6.7,30.7-20.4,46c-13.6,15.3-33.2,30.6-56.3,46.1c-23.1,15.5-49.6,31.2-77,47.3c-1.5,0.9-2.9,1.7-4.4,2.6
	C1913.7,2738.2,1887,2753.9,1861.7,2770.2z"/>
<path class="st3" d="M-338.6,2711.5c93.3-77.1,223.2-61.1,344.2-59.4c149.2,2.2,341.4-53.3,424.7,70.5c83.6,124-55,276.9-93.2,421.5
	c-30.6,115.7-15.4,249.7-105,329c-94.4,83.6-232.2,106.1-355.3,78.6c-115.4-25.8-200.4-116.8-263.6-216.7
	c-57.7-91.1-74.5-196.6-66.2-304.2C-444,2913.6-429.2,2786.3-338.6,2711.5z"/>
<path class="st2" d="M-284.7,2690.9c101.7-65.6,228.8-34.6,348.8-18.7c147.9,19.6,345.3-12.9,413.6,119.7
	c68.5,133-87.1,268.5-142,407.6c-43.9,111.3-44.6,246.2-142.9,314.5c-103.6,72-243.1,78.1-362.1,36.5
	c-111.6-39.1-185.3-139.5-236.4-246.1c-46.6-97.3-51-204-30.1-309.8C-413.1,2879.2-383.5,2754.6-284.7,2690.9z"/>
<path class="st3" d="M1238.7,3165.3c98.5,10.5,146.8,117,212.9,190.9c59.9,67.1,139.5,123.5,148.3,213.1
	c9.4,96.1-36.4,188.6-102.1,259.3c-68.3,73.5-158.8,132.8-259,129.4c-97.9-3.3-183.5-67.7-242-146.4c-51-68.6-43.4-156.8-47-242.3
	c-3.9-91.7-27.7-189,25.7-263.7C1035.6,3221.5,1135.9,3154.4,1238.7,3165.3z"/>
<path class="st2" d="M1104.2,3200.7c96-24.2,178.2,59.2,265.7,105.8c79.4,42.3,173.6,67.8,212.7,148.9c42,87,30.9,189.6-6.4,278.6
	c-38.8,92.6-103.2,179.4-198.5,210.8c-93.1,30.6-195.6-0.3-277.7-53.9c-71.5-46.8-94.8-132.2-127.7-211.2
	c-35.3-84.7-91.2-167.8-66.9-256.3C932.9,3323.6,1003.9,3226,1104.2,3200.7z"/>
<path class="st1" d="M191.2,3902.1c-37.4,47.8-56.6,106-36.3,168.4c18.6,57.3,69.2,103,128.1,115.7c34.5,7.4,70.3,4.2,105.4,0.9
	c62.1-5.8,124.2-11.7,186.4-17.5c16-1.5,32.7-3.3,46-12.2c18.3-12.3,26-35,31.2-56.4c15.3-62.5,17.6-137.8,2.1-200.7
	c-8.1-33.1-24.9-67.9-52-89.6c-24.4-19.5-69.2-22.7-99.9-23.8c-29-1.1-59.1,16.4-85.3,26.6c-41.7,16.4-84.1,23.7-128.4,28.6
	c-28.2,3.1-48.6,9.4-69.2,29.2C209.1,3881,199.7,3891.3,191.2,3902.1z"/>
<path class="st1" d="M1280.6,4467c82.4-34.6,184.2-66.1,254.9-11.4c46.1,35.7,62.6,98.3,63.7,156.5c1.1,58.3-10.3,116.4-6.8,174.6
	c3.1,51.8,17.7,105.2,0.7,154.2c-9.8,28.2-29.2,52-50.4,73c-85.5,85.1-200.9,132.9-315.7,170.1c-103.3,33.5-210.8,60.5-319.4,55.4
	c-199.7-9.2-514-285.3-192.2-349.3c104.8-20.8,197.6-36.8,262-131.1c44.7-65.5,58-135.7,120-190.6
	C1149.6,4522.1,1217,4493.7,1280.6,4467z"/>
<path class="st1" d="M-150.6,4275.7c13.5-5.3,27.5-10.8,42-9.7c15.5,1.1,29.4,9.6,42,18.7c60.4,43.6,105.4,106.4,167.7,147.2
	c42.6,27.9,94.5,46.7,121.8,89.7c24.5,38.5,23.2,87.6,17.8,132.9c-7.4,62.7-26.1,132-81,163.2c-67.2,38.2-153.1-1-209.1-54.3
	c-74.4-70.9-122.7-164.6-164.1-258.7C-258.3,4402.6-260.6,4319.3-150.6,4275.7z"/>
<path class="st2" d="M223.8,3823.4c-49,35.9-83.2,86.7-80.6,152.2c2.4,60.2,38.7,117.9,92,146c31.2,16.5,66.5,23,101.2,29.4
	c61.4,11.2,122.8,22.4,184.2,33.6c15.8,2.9,32.3,5.7,47.5,0.7c20.9-6.8,34.5-26.7,45.3-45.8c31.7-56,54.2-127.9,56.4-192.6
	c1.2-34-5.5-72.1-25.8-100.3c-18.2-25.4-60.5-40.6-89.7-49.9c-27.6-8.9-61.3-0.3-89.3,2.5c-44.6,4.5-87.4,0-131.3-7.3
	c-28-4.7-49.4-4.1-74.6,9.4C246.8,3807.9,234.9,3815.3,223.8,3823.4z"/>
<path class="st2" d="M1259.4,4439c78.9-42,177.3-82.8,252.7-34.8c49.2,31.3,71.4,92.1,77.8,150c6.4,57.9,0.5,116.9,9.3,174.5
	c7.8,51.3,27.3,103.2,14.9,153.5c-7.1,29-24.3,54.4-43.4,77.3c-77.3,92.6-187.8,150.8-298.7,198.4c-99.8,42.9-204.4,79.6-312.9,84.6
	c-199.7,9.2-538.1-236.8-223.6-330.2c102.4-30.4,193.4-54.8,248.9-154.6c38.5-69.4,45.3-140.4,101.9-200.8
	C1134,4505.9,1198.4,4471.4,1259.4,4439z"/>
<path class="st2" d="M-100.3,4226.8c14-3.7,28.6-7.4,42.9-4.6c15.2,3,28.1,13,39.5,23.6C36.9,4296.2,74,4364,131,4411.9
	c39,32.8,88.2,57.7,110.2,103.6c19.7,41.2,12.5,89.8,1.8,134.1c-14.9,61.3-41.7,127.9-99.9,152.4c-71.3,29.9-151.9-19.3-201.1-78.9
	c-65.4-79.3-102.1-178.1-132-276.5C-222.4,4339.8-214.8,4256.9-100.3,4226.8z"/>
</svg>
