<?xml version="1.0" encoding="utf-8"?>
<!-- Generator: Adobe Illustrator 26.3.1, SVG Export Plug-In . SVG Version: 6.00 Build 0)  -->
<svg version="1.1" id="Calque_1" xmlns="http://www.w3.org/2000/svg" xmlns:xlink="http://www.w3.org/1999/xlink" x="0px" y="0px"
	 viewBox="0 0 1512 2372" style="enable-background:new 0 0 1512 2372;" xml:space="preserve">
<style type="text/css">
	.st0{fill:#FFFFFF;}
	.st1{fill:#E4C2A0;fill-opacity:0.6;}
	.st2{fill:none;stroke:#3D3329;stroke-width:2;stroke-opacity:0.3;}
</style>
<path class="st0" d="M1378.8-384.9c97.9-53.8,165.3-156.5,227.3-161.1c61.6-4.7,117.6,89.1,131.6,173.1
	c13.4,84.4-15.7,158.8-47.8,214.6c-32.7,56.2-69,93.6-121.4,154.1c-52.5,60.5-121.6,143.4-199.1,151.5
	c-77.6,8.5-163.5-58.8-222.9-149.5c-58.9-90.6-91.5-204.5-43.3-264.1C1151.4-325.9,1280.4-331.2,1378.8-384.9L1378.8-384.9z"/>
<path class="st1" d="M1378.8-384.9c97.9-53.8,165.3-156.5,227.3-161.1c61.6-4.7,117.6,89.1,131.6,173.1
	c13.4,84.4-15.7,158.8-47.8,214.6c-32.7,56.2-69,93.6-121.4,154.1c-52.5,60.5-121.6,143.4-199.1,151.5
	c-77.6,8.5-163.5-58.8-222.9-149.5c-58.9-90.6-91.5-204.5-43.3-264.1C1151.4-325.9,1280.4-331.2,1378.8-384.9L1378.8-384.9z"/>
<path class="st2" d="M1357.6-371.7L1357.6-371.7c41.6-28.9,76.2-66.8,107.3-100.8c3.5-3.8,6.9-7.6,10.4-11.3
	c17.1-18.6,33.2-35.5,48.9-48.4c15.7-12.9,31-21.8,46.4-24.4l0,0c30.6-5.4,62.4,14,89.5,45.6c27.1,31.5,49.2,74.9,60.5,116.8
	c21.9,84.2-0.2,162.6-27.4,222.5c-23.1,50.3-49.9,87.5-85.6,137.2c-7.2,10-14.7,20.4-22.6,31.6c-1.8,2.5-3.6,5-5.4,7.6
	c-22.5,31.7-48,67.8-76.9,98.4c-31.2,33.1-66,59.7-104.8,67.6v0c-38.8,8.1-81.6-2.7-123.4-26.4c-41.8-23.7-82.6-60.2-117.3-103.3
	c-34.4-43.1-62.7-92.7-77-139.8c-14.3-47-14.5-91.2,6.8-123.6c10.7-16.2,26.8-29.5,46.6-41.4c19.8-11.9,43.1-22.3,68-32.7
	c7.7-3.2,15.5-6.4,23.4-9.6c43.7-17.8,90.3-36.8,130.6-64.2L1357.6-371.7z"/>
<path class="st0" d="M388.4,37.4c95.4,90.1,170.1,205.5,144.6,295c-25.5,90.1-150.7,154.4-246.7,200.7
	c-95.4,46.3-160.4,74.5-225.4,73.9c-65-0.6-129.4-29.4-190.8-75.7c-62-46.3-120.9-109.9-119.1-171.8c1.8-61.9,64.4-122,126.4-212.1
	C-61.2,57.2-0.5-63,88.2-90.6C176.3-118.2,292.9-52.8,388.4,37.4L388.4,37.4z"/>
<path class="st1" d="M388.4,37.4c95.4,90.1,170.1,205.5,144.6,295c-25.5,90.1-150.7,154.4-246.7,200.7
	c-95.4,46.3-160.4,74.5-225.4,73.9c-65-0.6-129.4-29.4-190.8-75.7c-62-46.3-120.9-109.9-119.1-171.8c1.8-61.9,64.4-122,126.4-212.1
	C-61.2,57.2-0.5-63,88.2-90.6C176.3-118.2,292.9-52.8,388.4,37.4L388.4,37.4z"/>
<path class="st2" d="M515,415.6L515,415.6c-22.2,41.4-67.5,71.2-120.5,93.8c-53,22.6-113.5,37.8-165.9,50.2l0,0
	c-104.2,25-174.3,38.6-238,24c-63.7-14.7-120.9-56.9-171.3-115.8l0,0c-25.5-29.5-49.3-63.1-64.8-96.9
	c-15.5-33.8-22.7-67.6-15.1-97.7c7.5-30,29.9-56.5,60.5-84.9c13.9-12.9,29.5-26.1,46.1-40.3c1.7-1.5,3.5-2.9,5.2-4.4
	c18.6-15.8,38.4-32.9,58.6-51.8l0,0c14.9-14,29.9-29.1,45.2-44.3C-19,21.6,7.5-4.9,34.7-28C77.8-64.8,122.5-93,169-97l0,0
	c46.1-4,94.3,16.3,140.4,51.4c46,35.1,89.8,84.9,127.1,139.7l0.2,0.3l0,0c37.1,54.7,67.8,114.4,83.6,170.7
	C536.2,321.6,537.2,374.5,515,415.6z"/>
<path class="st0" d="M1188.9,1237.4c-88.2-42.3-182.6-65.5-251.6-139.6c-69.6-73.8-113.9-198.6-64.9-261.9
	c48.1-63.7,190.2-66.2,317.4-119.2c127.2-52.9,241.1-156.2,341.4-149.2c100.9,6.7,188.7,124.8,195.9,237.7
	c7.4,113.4-64.8,222-125.9,320.7c-60.5,98.5-109,187.5-174.6,201.1C1360.3,1340.8,1277.7,1279.5,1188.9,1237.4L1188.9,1237.4z"/>
<path class="st1" d="M1188.9,1237.4c-88.2-42.3-182.6-65.5-251.6-139.6c-69.6-73.8-113.9-198.6-64.9-261.9
	c48.1-63.7,190.2-66.2,317.4-119.2c127.2-52.9,241.1-156.2,341.4-149.2c100.9,6.7,188.7,124.8,195.9,237.7
	c7.4,113.4-64.8,222-125.9,320.7c-60.5,98.5-109,187.5-174.6,201.1C1360.3,1340.8,1277.7,1279.5,1188.9,1237.4L1188.9,1237.4z"/>
<path class="st2" d="M1154.3,1211.4L1154.3,1211.4c-19.7-13.1-39.9-25.1-60-37c-0.9-0.6-1.9-1.1-2.8-1.7
	c-19.8-11.8-39.6-23.5-58.6-36c-39.9-26.2-76.8-56-105.6-97.4h0c-29.2-41.3-50.3-94.4-57-144c-6.7-49.6,1.2-95.6,29.5-123.2l0,0l0,0
	c14-13.9,33.2-23.3,56.4-30.1c23.2-6.8,50.2-10.9,79.7-14.4c12.9-1.5,26.4-2.9,40.1-4.3c48.9-5.1,102.2-10.6,154.3-24.1
	c48.4-12.5,96-31.8,141.6-50.3c17.4-7,34.4-14,51.2-20.3c60.8-23.2,117-39.4,165.8-28.9v0c49.1,10.4,91.2,47.7,119.9,96.6
	c28.7,48.9,44,109.2,39.7,165.3v0c-4.3,56.4-28.1,108.9-60.1,158.5c-28.4,43.9-63.2,85.3-96.6,125.2c-4.3,5.2-8.7,10.3-12.9,15.4
	l0,0c-6.7,8-13.2,16-19.7,23.9c-29.3,35.6-56.7,68.9-83.4,95c-32.7,31.9-64.3,53.1-97.4,55.1h0c-33.4,2.1-68.3-14.7-105.3-39
	c-18.2-12-36.9-25.8-56-39.9l-0.8-0.6c-19.4-14.3-39.4-29-59.9-42.6L1154.3,1211.4z"/>
<path class="st0" d="M174.1,1356.5c-68.6,49.4-140.3,77.2-215.7,81.3c-75.8,4-155.3-15.3-197.1-64.7c-42.2-49.4-46.3-128-51.3-212.4
	c-5.5-84-11.8-172.9,30.4-205.7c41.8-32.3,131.7-8.1,219.8-5.8c88.1,1.8,174.4-18,242.9,14.4c68.6,32.3,120.3,117.7,113.1,195.4
	C309,1236.6,242.7,1307.6,174.1,1356.5z"/>
<path class="st1" d="M174.1,1356.5c-68.6,49.4-140.3,77.2-215.7,81.3c-75.8,4-155.3-15.3-197.1-64.7c-42.2-49.4-46.3-128-51.3-212.4
	c-5.5-84-11.8-172.9,30.4-205.7c41.8-32.3,131.7-8.1,219.8-5.8c88.1,1.8,174.4-18,242.9,14.4c68.6,32.3,120.3,117.7,113.1,195.4
	C309,1236.6,242.7,1307.6,174.1,1356.5z"/>
<path class="st2" d="M143.9,1398.8L143.9,1398.8c-76.5,37.7-152.6,53.3-228.2,44.7c-76.2-8.7-151.8-41.3-184.9-97.2h0
	c-16.8-28-22.9-61.6-23.7-99c-0.8-36.3,3.6-76,8-117.3c0.1-1.2,0.3-2.4,0.4-3.5v0c0.1-1.1,0.2-2.2,0.3-3.2
	c4.2-41.3,8.6-83.5,17.5-118.7c9.2-36.2,23.2-64.6,46.6-77.2c11.6-6.2,25.6-8.5,41.5-8c15.9,0.4,33.7,3.5,52.8,7.9
	c15.5,3.6,31.9,8,48.8,12.6c3.9,1.1,7.8,2.1,11.7,3.2c21.1,5.7,42.8,11.4,64.7,15.6h0c21.9,4.2,43.9,7,65.6,9.5
	c4.1,0.5,8.2,1,12.3,1.4c17.4,2,34.6,4,51.2,6.5c41.1,6.2,79,15.9,110.3,37.6c31.3,21.8,56.2,56,70.8,94.3
	c14.6,38.3,18.8,80.6,8.7,118.5c-10.1,37.9-34.5,71.7-66.1,100.7C220.8,1356,182.2,1380.2,143.9,1398.8z"/>
<path class="st0" d="M493.8,1679.1c97.9-53.8,165.3-156.5,227.3-161.1c61.5-4.7,117.6,89.1,131.6,173.1
	c13.4,84.4-15.7,158.8-47.8,214.6c-32.7,56.2-69,93.6-121.4,154.1c-52.5,60.5-121.6,143.4-199.1,151.5
	c-77.6,8.5-163.5-58.8-222.9-149.5c-59-90.6-91.5-204.5-43.3-264.1C266.4,1738.1,395.4,1732.8,493.8,1679.1L493.8,1679.1z"/>
<path class="st1" d="M493.8,1679.1c97.9-53.8,165.3-156.5,227.3-161.1c61.5-4.7,117.6,89.1,131.6,173.1
	c13.4,84.4-15.7,158.8-47.8,214.6c-32.7,56.2-69,93.6-121.4,154.1c-52.5,60.5-121.6,143.4-199.1,151.5
	c-77.6,8.5-163.5-58.8-222.9-149.5c-59-90.6-91.5-204.5-43.3-264.1C266.4,1738.1,395.4,1732.8,493.8,1679.1L493.8,1679.1z"/>
<path class="st2" d="M472.6,1692.3L472.6,1692.3c41.6-28.9,76.2-66.8,107.3-100.8c3.5-3.8,7-7.6,10.4-11.3
	c17.1-18.6,33.2-35.5,48.9-48.4c15.7-12.9,31-21.8,46.4-24.4h0c30.5-5.4,62.4,14,89.5,45.6c27.1,31.5,49.3,74.9,60.5,116.8
	c21.9,84.2-0.2,162.6-27.4,222.5c-23.1,50.3-49.9,87.5-85.6,137.2c-7.2,10-14.7,20.4-22.6,31.6c-1.8,2.5-3.6,5-5.4,7.6
	c-22.5,31.7-48,67.8-76.9,98.4c-31.2,33.1-66,59.7-104.8,67.6h0c-38.8,8.1-81.6-2.7-123.4-26.4c-41.8-23.7-82.6-60.2-117.3-103.3
	c-34.4-43.1-62.7-92.8-77-139.8c-14.3-47-14.5-91.2,6.8-123.6c10.7-16.2,26.8-29.5,46.6-41.4c19.7-11.9,43.1-22.3,68-32.7
	c7.7-3.2,15.5-6.4,23.4-9.6c43.7-17.8,90.3-36.8,130.6-64.2L472.6,1692.3z"/>
<path class="st0" d="M1187.6,2467.9c-23.4-102.6,37.7-229.4,133.6-289.6c96.8-60,229.6-54.2,318.1-4.7s133.6,142.1,225.3,222.5
	c92.1,80.8,231.9,149.4,235.1,212.8s-130,121.3-236.6,190.1c-106.7,69.8-186.8,150.4-255.2,140.2
	c-68.5-10.2-125.8-110.8-207.7-200.9C1318.3,2649.2,1211,2570.4,1187.6,2467.9L1187.6,2467.9z"/>
<path class="st1" d="M1187.6,2467.9c-23.4-102.6,37.7-229.4,133.6-289.6c96.8-60,229.6-54.2,318.1-4.7s133.6,142.1,225.3,222.5
	c92.1,80.8,231.9,149.4,235.1,212.8s-130,121.3-236.6,190.1c-106.7,69.8-186.8,150.4-255.2,140.2
	c-68.5-10.2-125.8-110.8-207.7-200.9C1318.3,2649.2,1211,2570.4,1187.6,2467.9L1187.6,2467.9z"/>
<path class="st2" d="M1862.6,2770.1L1862.6,2770.1c-26.7,17.5-51.7,35.6-75.3,52.8c-1.8,1.3-3.6,2.6-5.4,3.9
	c-21.6,15.8-41.9,30.6-61.3,43.4c-41.9,27.6-78.8,45-112.6,40l0,0c-33.8-5-65.1-32.4-98.2-70.1c-14.4-16.4-29.2-34.7-44.6-53.9
	c-2.3-2.8-4.5-5.6-6.8-8.5c-18-22.3-36.9-45.5-57.4-68h0c-20.5-22.3-42.5-43.9-64.4-65.4l-0.1-0.1c-21.9-21.5-43.8-42.9-63.7-64.7
	c-40-43.6-72.5-88.8-84.1-139.8l0-0.2l0,0c-11.6-51-2.2-108,22.1-159.8c24.3-51.9,63.4-98.5,111.2-128.4
	c96.5-59.8,228.8-54,317.1-4.7c44.1,24.6,77.4,60.1,111.2,99.4c5.6,6.6,11.3,13.3,17,20.1c28.5,33.7,58.6,69.4,96.9,102.9
	c30.9,27.1,67.1,52.8,101.7,77.4c17.1,12.1,33.8,24,49.2,35.6c23.4,17.6,44,34.6,58.9,51.1c15,16.5,24.1,32.5,24.9,48
	c0.8,15.4-6.7,30.7-20.4,46c-13.6,15.3-33.2,30.6-56.3,46.1c-23.1,15.5-49.6,31.2-77.1,47.3c-1.5,0.9-2.9,1.7-4.4,2.6
	C1914.6,2738.1,1887.9,2753.8,1862.6,2770.1z"/>
</svg>
